<svg width="210" height="58" viewBox="0 0 210 72" fill="none" xmlns="http://www.w3.org/2000/svg">
<path d="M30.936 29.99C32.268 29.99 33.432 30.248 34.428 30.764C35.436 31.268 36.21 32 36.75 32.96C37.302 33.908 37.578 35.018 37.578 36.29C37.578 37.562 37.302 38.666 36.75 39.602C36.21 40.538 35.436 41.258 34.428 41.762C33.432 42.254 32.268 42.5 30.936 42.5H26.85V29.99H30.936ZM30.936 40.826C32.4 40.826 33.522 40.43 34.302 39.638C35.082 38.846 35.472 37.73 35.472 36.29C35.472 34.838 35.082 33.704 34.302 32.888C33.522 32.072 32.4 31.664 30.936 31.664H28.902V40.826H30.936ZM43.9137 42.662C42.9777 42.662 42.1317 42.452 41.3757 42.032C40.6197 41.6 40.0257 41 39.5937 40.232C39.1617 39.452 38.9457 38.552 38.9457 37.532C38.9457 36.524 39.1677 35.63 39.6117 34.85C40.0557 34.07 40.6617 33.47 41.4297 33.05C42.1977 32.63 43.0557 32.42 44.0037 32.42C44.9517 32.42 45.8097 32.63 46.5777 33.05C47.3457 33.47 47.9517 34.07 48.3957 34.85C48.8397 35.63 49.0617 36.524 49.0617 37.532C49.0617 38.54 48.8337 39.434 48.3777 40.214C47.9217 40.994 47.2977 41.6 46.5057 42.032C45.7257 42.452 44.8617 42.662 43.9137 42.662ZM43.9137 40.88C44.4417 40.88 44.9337 40.754 45.3897 40.502C45.8577 40.25 46.2357 39.872 46.5237 39.368C46.8117 38.864 46.9557 38.252 46.9557 37.532C46.9557 36.812 46.8177 36.206 46.5417 35.714C46.2657 35.21 45.8997 34.832 45.4437 34.58C44.9877 34.328 44.4957 34.202 43.9677 34.202C43.4397 34.202 42.9477 34.328 42.4917 34.58C42.0477 34.832 41.6937 35.21 41.4297 35.714C41.1657 36.206 41.0337 36.812 41.0337 37.532C41.0337 38.6 41.3037 39.428 41.8437 40.016C42.3957 40.592 43.0857 40.88 43.9137 40.88ZM64.4102 32.582L61.3322 42.5H59.1722L57.1742 35.174L55.1762 42.5H53.0162L49.9202 32.582H52.0082L54.0782 40.556L56.1842 32.582H58.3262L60.3422 40.52L62.3942 32.582H64.4102ZM70.9478 32.42C71.7278 32.42 72.4238 32.582 73.0358 32.906C73.6598 33.23 74.1458 33.71 74.4938 34.346C74.8418 34.982 75.0158 35.75 75.0158 36.65V42.5H72.9818V36.956C72.9818 36.068 72.7598 35.39 72.3158 34.922C71.8718 34.442 71.2658 34.202 70.4978 34.202C69.7298 34.202 69.1178 34.442 68.6618 34.922C68.2178 35.39 67.9958 36.068 67.9958 36.956V42.5H65.9438V32.582H67.9958V33.716C68.3318 33.308 68.7578 32.99 69.2738 32.762C69.8018 32.534 70.3598 32.42 70.9478 32.42ZM79.6852 29.18V42.5H77.6332V29.18H79.6852ZM86.6813 42.662C85.7453 42.662 84.8993 42.452 84.1433 42.032C83.3873 41.6 82.7933 41 82.3613 40.232C81.9293 39.452 81.7133 38.552 81.7133 37.532C81.7133 36.524 81.9353 35.63 82.3793 34.85C82.8233 34.07 83.4293 33.47 84.1973 33.05C84.9653 32.63 85.8233 32.42 86.7713 32.42C87.7193 32.42 88.5773 32.63 89.3453 33.05C90.1133 33.47 90.7193 34.07 91.1633 34.85C91.6073 35.63 91.8293 36.524 91.8293 37.532C91.8293 38.54 91.6013 39.434 91.1453 40.214C90.6893 40.994 90.0653 41.6 89.2733 42.032C88.4933 42.452 87.6293 42.662 86.6813 42.662ZM86.6813 40.88C87.2093 40.88 87.7013 40.754 88.1573 40.502C88.6253 40.25 89.0033 39.872 89.2913 39.368C89.5793 38.864 89.7233 38.252 89.7233 37.532C89.7233 36.812 89.5853 36.206 89.3093 35.714C89.0333 35.21 88.6673 34.832 88.2113 34.58C87.7553 34.328 87.2633 34.202 86.7353 34.202C86.2073 34.202 85.7153 34.328 85.2593 34.58C84.8153 34.832 84.4613 35.21 84.1973 35.714C83.9333 36.206 83.8013 36.812 83.8013 37.532C83.8013 38.6 84.0713 39.428 84.6113 40.016C85.1633 40.592 85.8533 40.88 86.6813 40.88ZM93.1738 37.496C93.1738 36.5 93.3778 35.618 93.7858 34.85C94.2058 34.082 94.7698 33.488 95.4778 33.068C96.1978 32.636 96.9898 32.42 97.8538 32.42C98.6338 32.42 99.3118 32.576 99.8878 32.888C100.476 33.188 100.944 33.566 101.292 34.022V32.582H103.362V42.5H101.292V41.024C100.944 41.492 100.47 41.882 99.8698 42.194C99.2698 42.506 98.5858 42.662 97.8178 42.662C96.9658 42.662 96.1858 42.446 95.4778 42.014C94.7698 41.57 94.2058 40.958 93.7858 40.178C93.3778 39.386 93.1738 38.492 93.1738 37.496ZM101.292 37.532C101.292 36.848 101.148 36.254 100.86 35.75C100.584 35.246 100.218 34.862 99.7618 34.598C99.3058 34.334 98.8138 34.202 98.2858 34.202C97.7578 34.202 97.2658 34.334 96.8098 34.598C96.3538 34.85 95.9818 35.228 95.6938 35.732C95.4178 36.224 95.2798 36.812 95.2798 37.496C95.2798 38.18 95.4178 38.78 95.6938 39.296C95.9818 39.812 96.3538 40.208 96.8098 40.484C97.2778 40.748 97.7698 40.88 98.2858 40.88C98.8138 40.88 99.3058 40.748 99.7618 40.484C100.218 40.22 100.584 39.836 100.86 39.332C101.148 38.816 101.292 38.216 101.292 37.532ZM105.373 37.496C105.373 36.5 105.577 35.618 105.985 34.85C106.405 34.082 106.969 33.488 107.677 33.068C108.397 32.636 109.195 32.42 110.071 32.42C110.719 32.42 111.355 32.564 111.979 32.852C112.615 33.128 113.119 33.5 113.491 33.968V29.18H115.561V42.5H113.491V41.006C113.155 41.486 112.687 41.882 112.087 42.194C111.499 42.506 110.821 42.662 110.053 42.662C109.189 42.662 108.397 42.446 107.677 42.014C106.969 41.57 106.405 40.958 105.985 40.178C105.577 39.386 105.373 38.492 105.373 37.496ZM113.491 37.532C113.491 36.848 113.347 36.254 113.059 35.75C112.783 35.246 112.417 34.862 111.961 34.598C111.505 34.334 111.013 34.202 110.485 34.202C109.957 34.202 109.465 34.334 109.009 34.598C108.553 34.85 108.181 35.228 107.893 35.732C107.617 36.224 107.479 36.812 107.479 37.496C107.479 38.18 107.617 38.78 107.893 39.296C108.181 39.812 108.553 40.208 109.009 40.484C109.477 40.748 109.969 40.88 110.485 40.88C111.013 40.88 111.505 40.748 111.961 40.484C112.417 40.22 112.783 39.836 113.059 39.332C113.347 38.816 113.491 38.216 113.491 37.532ZM130.474 39.944H125.236L124.336 42.5H122.194L126.676 29.972H129.052L133.534 42.5H131.374L130.474 39.944ZM129.898 38.27L127.864 32.456L125.812 38.27H129.898ZM137.535 34.04C137.883 33.584 138.357 33.2 138.957 32.888C139.557 32.576 140.235 32.42 140.991 32.42C141.855 32.42 142.641 32.636 143.349 33.068C144.069 33.488 144.633 34.082 145.041 34.85C145.449 35.618 145.653 36.5 145.653 37.496C145.653 38.492 145.449 39.386 145.041 40.178C144.633 40.958 144.069 41.57 143.349 42.014C142.641 42.446 141.855 42.662 140.991 42.662C140.235 42.662 139.563 42.512 138.975 42.212C138.387 41.9 137.907 41.516 137.535 41.06V47.216H135.483V32.582H137.535V34.04ZM143.565 37.496C143.565 36.812 143.421 36.224 143.133 35.732C142.857 35.228 142.485 34.85 142.017 34.598C141.561 34.334 141.069 34.202 140.541 34.202C140.025 34.202 139.533 34.334 139.065 34.598C138.609 34.862 138.237 35.246 137.949 35.75C137.673 36.254 137.535 36.848 137.535 37.532C137.535 38.216 137.673 38.816 137.949 39.332C138.237 39.836 138.609 40.22 139.065 40.484C139.533 40.748 140.025 40.88 140.541 40.88C141.069 40.88 141.561 40.748 142.017 40.484C142.485 40.208 142.857 39.812 143.133 39.296C143.421 38.78 143.565 38.18 143.565 37.496ZM149.734 34.04C150.082 33.584 150.556 33.2 151.156 32.888C151.756 32.576 152.434 32.42 153.19 32.42C154.054 32.42 154.84 32.636 155.548 33.068C156.268 33.488 156.832 34.082 157.24 34.85C157.648 35.618 157.852 36.5 157.852 37.496C157.852 38.492 157.648 39.386 157.24 40.178C156.832 40.958 156.268 41.57 155.548 42.014C154.84 42.446 154.054 42.662 153.19 42.662C152.434 42.662 151.762 42.512 151.174 42.212C150.586 41.9 150.106 41.516 149.734 41.06V47.216H147.682V32.582H149.734V34.04ZM155.764 37.496C155.764 36.812 155.62 36.224 155.332 35.732C155.056 35.228 154.684 34.85 154.216 34.598C153.76 34.334 153.268 34.202 152.74 34.202C152.224 34.202 151.732 34.334 151.264 34.598C150.808 34.862 150.436 35.246 150.148 35.75C149.872 36.254 149.734 36.848 149.734 37.532C149.734 38.216 149.872 38.816 150.148 39.332C150.436 39.836 150.808 40.22 151.264 40.484C151.732 40.748 152.224 40.88 152.74 40.88C153.268 40.88 153.76 40.748 154.216 40.484C154.684 40.208 155.056 39.812 155.332 39.296C155.62 38.78 155.764 38.18 155.764 37.496Z" fill="url(#paint0_linear_1_58)"/>
<path fill-rule="evenodd" clip-rule="evenodd" d="M169.793 33.2929C170.183 32.9024 170.817 32.9024 171.207 33.2929L174.5 36.5858L177.793 33.2929C178.183 32.9024 178.817 32.9024 179.207 33.2929C179.598 33.6834 179.598 34.3166 179.207 34.7071L175.207 38.7071C174.817 39.0976 174.183 39.0976 173.793 38.7071L169.793 34.7071C169.402 34.3166 169.402 33.6834 169.793 33.2929Z" fill="url(#paint1_linear_1_58)"/>
<rect x="0.5" y="0.5" width="209" height="71" rx="35.5" stroke="url(#paint2_linear_1_58)"/>
<defs>
<linearGradient id="paint0_linear_1_58" x1="4.7069" y1="19.8871" x2="16.1217" y2="80.4452" gradientUnits="userSpaceOnUse">
<stop stop-color="#468EF9"/>
<stop offset="1" stop-color="#0C66EE"/>
</linearGradient>
<linearGradient id="paint1_linear_1_58" x1="167.948" y1="32.4194" x2="173.896" y2="43.0163" gradientUnits="userSpaceOnUse">
<stop stop-color="#468EF9"/>
<stop offset="1" stop-color="#0C66EE"/>
</linearGradient>
<linearGradient id="paint2_linear_1_58" x1="-16.2971" y1="-4.09091" x2="-10.2996" y2="89.3609" gradientUnits="userSpaceOnUse">
<stop stop-color="#3984F4"/>
<stop offset="0.390625" stop-color="#0CD3FF"/>
<stop offset="0.765625" stop-color="#2F7CF0"/>
<stop offset="1" stop-color="#0E65E8"/>
</linearGradient>
</defs>
</svg>
